<?xml version="1.0" encoding="UTF-8"?>
<svg id="Layer_5" data-name="Layer 5" xmlns="http://www.w3.org/2000/svg" viewBox="0 0 800 800">
  <defs>
    <style>
      .cls-1 {
        fill: #b8e1ff;
      }

      .cls-2 {
        fill: none;
        stroke: #b8e1ff;
        stroke-miterlimit: 10;
        stroke-width: 44px;
      }
    </style>
  </defs>
  <rect class="cls-2" x="23.5" y="23.5" width="753" height="753" rx="168.68" ry="168.68"/>
  <path class="cls-1" d="m412.59,147.76c-19.56.77-34.79,17.25-34.02,36.81.43,10.84,5.79,20.89,14.56,27.27l41.29,31.01c-16.51,3.96-32.27,9.92-46.99,17.56h-171.65c-22.37-.32-40.76,17.56-41.07,39.93-.32,22.37,17.56,40.76,39.93,41.07.38,0,.76,0,1.15,0h87.17c-3.52,6.12-6.76,12.49-9.65,18.98l-168.64,134.79c-17.47,13.98-20.31,39.48-6.33,56.95,13.98,17.47,39.48,20.31,56.95,6.33l102.52-81.95c15.14,98.1,99.05,173.65,200.9,175.72,116.77,2.37,213.11-93.02,211.84-209.8-.89-82.1-49.58-152.8-119.43-185.66l-135.42-101.57c-6.58-5.12-14.76-7.75-23.1-7.44Zm75.02,165.31c68.32,0,123.71,51.45,123.71,114.98s-55.39,115.14-123.71,115.14-123.71-51.61-123.71-115.14,55.39-114.98,123.71-114.98Zm0,34.78c-47.7,0-86.39,35.85-86.39,80.2s38.69,80.36,86.39,80.36,86.39-36.01,86.39-80.36-38.69-80.2-86.39-80.2Z"/>
</svg>