<?xml version="1.0" encoding="UTF-8"?>
<svg id="Layer_7" data-name="Layer 7" xmlns="http://www.w3.org/2000/svg" viewBox="0 0 800 800">
  <defs>
    <style>
      .cls-1 {
        fill: #b8e1ff;
        fill-rule: evenodd;
      }

      .cls-2 {
        fill: none;
        stroke: #b8e1ff;
        stroke-miterlimit: 10;
        stroke-width: 44px;
      }
    </style>
  </defs>
  <rect class="cls-2" x="23.5" y="23.5" width="753" height="753" rx="168.68" ry="168.68"/>
  <path class="cls-1" d="m638.8,198.5l-105.83-50.9c-3.93-1.89-8.21-2.95-12.57-3.11l-1.08-.05h-.93c-8.32.13-16.26,3.48-22.15,9.36l-202.41,184.72-88.2-66.91c-8.21-6.27-19.72-5.76-27.34,1.21l-28.3,25.73c-4.44,4.03-6.97,9.74-6.99,15.73v.1c0,5.78,2.31,11.59,6.99,15.83l76.48,69.79-76.48,69.79c-8.74,7.99-9.34,21.55-1.36,30.29.44.48.9.94,1.38,1.38l28.3,25.73c7.62,7,19.17,7.51,27.37,1.21l88.2-66.91,202.41,184.72c5.27,5.27,12.22,8.52,19.63,9.2l.31.03c.53.06,1.09.05,1.6.09.58.04,1.16.03,1.74.01l.69-.03c4.34-.15,8.66-1.16,12.75-3.14l105.83-50.9c11.08-5.32,18.14-16.58,18.14-28.92V227.44c0-12.36-7.07-23.6-18.2-28.94Zm-110.8,317.62l-153.51-116.47,153.51-116.47v232.94Z"/>
</svg>