<?xml version="1.0" encoding="UTF-8"?>
<svg id="Layer_6" data-name="Layer 6" xmlns="http://www.w3.org/2000/svg" viewBox="0 0 800 800">
  <defs>
    <style>
      .cls-1 {
        fill: #b8e1ff;
      }

      .cls-2 {
        fill: none;
        stroke: #b8e1ff;
        stroke-miterlimit: 10;
        stroke-width: 44px;
      }
    </style>
  </defs>
  <rect class="cls-2" x="23.5" y="23.5" width="753" height="753" rx="168.68" ry="168.68"/>
  <path class="cls-1" d="m487.84,330.5c-38.22,0-70.1,30.41-70.57,68.62-.48,38.79,30.82,70.38,69.49,70.38h1.18c38.22,0,70.1-30.41,70.57-68.62.48-38.79-30.82-70.38-69.49-70.38h-1.18Zm1.18,173h-1.27c-55.3,0-101.64-43.04-104.36-98.27-2.93-59.54,44.48-108.73,103.37-108.73h1.27c55.3,0,101.64,43.04,104.36,98.27,2.93,59.54-44.48,108.73-103.37,108.73h0Zm-177.9,0h-.02c-38.39,0-69.5,31.11-69.5,69.5s31.11,69.5,69.5,69.5h.63-.04.2c39.07,0,70.79-31.57,70.99-70.61v-68.39h-71.77Zm.57,173h-.83c-57.16,0-103.5-46.34-103.5-103.5s46.34-103.5,103.5-103.5h106.03v102.37c-.22,57.83-47.17,104.63-105.01,104.63h-.18Zm-.56-346.02c-38.39,0-69.51,31.12-69.51,69.51s31.12,69.51,69.51,69.51h71.76v-139l-71.76-.02Zm105.74,173.02h-104.75c-55.3,0-101.64-43.04-104.36-98.27-2.93-59.54,44.48-108.73,103.37-108.73h105.75v207h-.02Zm-105.72-345.98c-38.38,0-69.49,31.11-69.49,69.49s31.11,69.49,69.49,69.49h71.74v-139l-71.74.02Zm105.72,172.98h-105.71c-57.15,0-103.5-46.33-103.5-103.5s46.33-103.5,103.5-103.5h105.73v206.98l-.02.02Zm.02-34h71.75c38.31-.09,69.33-31.17,69.33-69.5s-31.02-69.41-69.33-69.5h-71.75v139Zm72,34h-106V123.5h106c57.3,0,103.76,46.33,103.76,103.51s-46.45,103.51-103.76,103.51h0v-.02Z"/>
</svg>