<?xml version="1.0" encoding="UTF-8"?>
<svg id="Layer_1" data-name="Layer 1" xmlns="http://www.w3.org/2000/svg" viewBox="0 0 800 800">
  <defs>
    <style>
      .cls-1 {
        fill: #f2d7dc;
      }
    </style>
  </defs>
  <path class="cls-1" d="m.24,101.59C-3.8,44.46,44.58,0,101.74,0h122.35c29.34,0,55.8,17.68,67.09,44.82l51.16,123.04c12.46,29.97,3.62,64.59-21.68,84.88l-31.89,25.57c-14.23,11.41-19.07,31.08-10.63,47.26,43.37,83.11,107.46,153.65,185.41,204.73,16.45,10.78,38.19,6.49,50.46-8.88l33.23-41.63c20.24-25.35,54.79-34.22,84.7-21.73l122.79,51.27c27.08,11.31,44.72,37.83,44.72,67.22v122.96c0,57.28-46.01,103.75-103.02,99.69C331.85,773.26,26.08,467.74.24,101.59Z"/>
</svg>