<?xml version="1.0" encoding="UTF-8"?>
<svg id="Layer_1" data-name="Layer 1" xmlns="http://www.w3.org/2000/svg" viewBox="0 0 800 800">
  <defs>
    <style>
      .cls-1 {
        fill: #f2d7dc;
        fill-rule: evenodd;
      }
    </style>
  </defs>
  <path class="cls-1" d="m399.87,0c-108.6,0-122.22.46-164.87,2.41-42.56,1.94-71.63,8.7-97.07,18.59-26.3,10.22-48.6,23.89-70.83,46.12-22.23,22.23-35.9,44.53-46.12,70.83-9.89,25.44-16.65,54.5-18.59,97.07-1.95,42.65-2.41,56.27-2.41,164.87s.46,122.21,2.41,164.87c1.94,42.56,8.7,71.63,18.59,97.06,10.22,26.3,23.89,48.6,46.12,70.83,22.23,22.23,44.53,35.9,70.83,46.12,25.44,9.88,54.5,16.64,97.07,18.59,42.65,1.94,56.27,2.4,164.87,2.4s122.22-.46,164.87-2.4c42.56-1.94,71.63-8.7,97.07-18.59,26.29-10.22,48.59-23.89,70.83-46.12,22.23-22.23,35.9-44.53,46.12-70.83,9.88-25.43,16.64-54.5,18.58-97.06,1.95-42.65,2.41-56.27,2.41-164.87s-.46-122.22-2.41-164.87c-1.94-42.56-8.7-71.63-18.58-97.07-10.22-26.3-23.89-48.6-46.12-70.83-22.23-22.23-44.53-35.9-70.83-46.12-25.44-9.89-54.5-16.65-97.07-18.59-42.65-1.95-56.27-2.41-164.87-2.41Zm-133.29,399.88c0,73.61,59.68,133.29,133.29,133.29s133.29-59.68,133.29-133.29-59.68-133.29-133.29-133.29-133.29,59.68-133.29,133.29Zm-72.05,0c0-113.41,91.93-205.34,205.34-205.34s205.34,91.93,205.34,205.34-91.93,205.34-205.34,205.34-205.34-91.93-205.34-205.34Zm418.79-165.47c26.5,0,47.99-21.48,47.99-47.98s-21.48-47.99-47.99-47.99-47.98,21.48-47.98,47.99,21.48,47.98,47.98,47.98Z"/>
</svg>