<?xml version="1.0" encoding="UTF-8"?>
<svg id="Layer_1" data-name="Layer 1" xmlns="http://www.w3.org/2000/svg" viewBox="0 0 800 800">
  <defs>
    <style>
      .cls-1 {
        fill: #f2d7dc;
      }
    </style>
  </defs>
  <path class="cls-1" d="m688.93,106.13H111.07C49.73,106.13,0,155.86,0,217.2v365.6c0,61.34,49.73,111.07,111.07,111.07h577.87c61.34,0,111.07-49.73,111.07-111.07V217.2c0-61.34-49.73-111.07-111.07-111.07Zm-410.55,396.55l-155.53,132.69c-10.97,9.36-27.46,8.06-36.82-2.92-9.36-10.97-8.06-27.46,2.92-36.82l155.53-132.69c10.97-9.36,27.46-8.06,36.82,2.92,9.36,10.97,8.06,27.46-2.92,36.82Zm121.62-50.44c-20.8-.05-40.97-6.96-56.73-20.6h.01s-.05-.02-.05-.02c.01.01.03.01.04.02L104.63,224.52c-10.91-9.47-12.07-25.96-2.62-36.85,9.46-10.91,25.96-12.07,36.85-2.62l238.7,207.17c5.1,4.54,13.51,7.82,22.44,7.77,8.92.03,17.18-3.16,22.56-7.86l.12-.1,238.46-206.98c10.89-9.45,27.38-8.29,36.85,2.62,9.45,10.89,8.29,27.38-2.62,36.85l-238.7,207.19c-15.71,13.49-35.85,20.51-56.67,20.53Zm313.98,180.21c-9.36,10.98-25.85,12.28-36.82,2.92l-155.53-132.69c-10.98-9.36-12.28-25.85-2.92-36.82,9.36-10.98,25.85-12.28,36.82-2.92l155.53,132.69c10.98,9.36,12.28,25.85,2.92,36.82Z"/>
</svg>