<?xml version="1.0" encoding="UTF-8"?>
<svg id="Layer_4" data-name="Layer 4" xmlns="http://www.w3.org/2000/svg" viewBox="0 0 800 800">
  <defs>
    <style>
      .cls-1 {
        fill: #9cc4e5;
      }

      .cls-2 {
        fill: #85add5;
      }

      .cls-3 {
        fill: #bbd8ef;
      }

      .cls-4 {
        fill: #ffe8d1;
      }
    </style>
  </defs>
  <rect class="cls-2" width="800" height="800" rx="85.17" ry="85.17"/>
  <rect class="cls-3" x="124.4" y="198" width="550.8" height="403.62" rx="13.48" ry="13.48" transform="translate(799.61 .02) rotate(90)"/>
  <rect class="cls-4" x="148.57" y="223.65" width="502.45" height="352.33" transform="translate(799.61 .02) rotate(90)"/>
  <path class="cls-1" d="m603.92,388.09c-14.75-37.04-67.97-78.62-67.97-78.62,0,0-10.09,66.78,4.65,103.82,10.7,26.88,22.33,34.37,34.58,33.81l106.07,266.47,17.86,21.07c3.69,4.36,10.81,1.53,10.5-4.18l-1.51-27.58-106.07-266.47c9.29-8.01,12.59-21.45,1.89-48.33Z"/>
  <path class="cls-2" d="m506.8,349.19c0-33.14-26.86-60-60-60-19.05,0-36.01,8.89-47,22.73-10.99-13.84-27.95-22.73-47-22.73-33.14,0-60,26.86-60,60,0,10.93,2.94,21.17,8.05,30l98.95,131.24,98.95-131.24c5.11-8.83,8.05-19.07,8.05-30Z"/>
</svg>